<?xml version="1.0" encoding="utf-8"?>
<!-- Generator: Adobe Illustrator 16.0.4, SVG Export Plug-In . SVG Version: 6.00 Build 0)  -->
<!DOCTYPE svg PUBLIC "-//W3C//DTD SVG 1.1//EN" "http://www.w3.org/Graphics/SVG/1.1/DTD/svg11.dtd">
<svg version="1.1" id="Capa_1" xmlns="http://www.w3.org/2000/svg" xmlns:xlink="http://www.w3.org/1999/xlink" x="0px" y="0px"
	 width="100px" height="100px" viewBox="0 0 100 100" enable-background="new 0 0 100 100" xml:space="preserve">
<g id="Layer_8">
	<path d="M90.333,54.432c0,22.239-18.093,40.334-40.332,40.334c-22.24,0-40.334-18.095-40.334-40.334
		c0-16.569,10.394-31.698,25.861-37.646c2.578-0.988,5.471,0.294,6.462,2.872c0.991,2.578-0.295,5.471-2.872,6.462
		c-11.635,4.474-19.451,15.852-19.451,28.313c0,16.726,13.607,30.332,30.334,30.332c16.726,0,30.332-13.606,30.332-30.332
		c0-12.151-7.224-23.099-18.399-27.888c-2.539-1.087-3.716-4.026-2.627-6.564c1.086-2.538,4.024-3.715,6.563-2.627
		C80.73,23.72,90.333,38.274,90.333,54.432z M50.466,50.732c2.761,0,5-2.238,5-5V10.235c0-2.762-2.239-5-5-5s-5,2.238-5,5v35.497
		C45.466,48.494,47.706,50.732,50.466,50.732z"/>
</g>
</svg>
